<svg id="Camada_1" data-name="Camada 1" xmlns="http://www.w3.org/2000/svg" viewBox="0 0 75.131 66.783"><path d="M52.366,42.957c-.1-.007-.209-.016-.307-.025a3.558,3.558,0,0,0-.606-.025,3.716,3.716,0,0,0-.3.528,2.789,2.789,0,0,1-1.273,1.482,2.106,2.106,0,0,1-1.243.1,6.788,6.788,0,0,1-.7-.179c-.181-.053-.351-.1-.49-.128a.784.784,0,0,0-.1-.014,3.7,3.7,0,0,0-.391.458,2.784,2.784,0,0,1-1.54,1.206,1.85,1.85,0,0,1-.731.007,4.06,4.06,0,0,1-1.16-.461,3.516,3.516,0,0,0-.556-.256,3.857,3.857,0,0,0-.471.371,2.79,2.79,0,0,1-1.749.881,1.723,1.723,0,0,1-.342-.028,3.21,3.21,0,0,1-1.421-.786,3.677,3.677,0,0,0-.5-.362,3.83,3.83,0,0,0-.531.271c-.149.086-.31.176-.48.259l3.757,20.523L48.3,59.942l7.923,4.1L53.417,42.743A1.393,1.393,0,0,1,52.366,42.957Z"/><path d="M23.805,26.9c.068-.014.088-.042.074-.11l-.12-.588,1.181-.24c.07-.014.088-.042.074-.11l-.037-.184c-.015-.07-.042-.089-.112-.074l-1.426.29c-.07.015-.088.042-.074.113l.176.862c.014.068.041.086.111.072Z"/><path d="M24.243,28.108l-.186-.649.3-.088.148.516c.019.067.049.085.118.065l.15-.043c.067-.02.083-.051.063-.118l-.149-.515.288-.083.18.627c.02.069.049.085.116.066l.15-.043c.069-.02.085-.049.065-.118l-.259-.9c-.02-.069-.049-.085-.117-.065l-1.4.405c-.069.02-.085.048-.065.117l.265.92c.019.067.048.082.117.063l.15-.043C24.245,28.2,24.263,28.175,24.243,28.108Z"/><path d="M25.682,28.271l-.063-.179c-.024-.066-.054-.079-.119-.057l-1.377.491c-.065.023-.079.053-.056.118l.064.18c.023.066.053.08.119.056l1.376-.49C25.691,28.366,25.705,28.337,25.682,28.271Z"/><path d="M26.488,30.128l-.073-.155c-.03-.063-.061-.074-.126-.043l-.5.237a1.712,1.712,0,0,0-.431.287l-.008-.017a2.019,2.019,0,0,0,.29-.357l.44-.713a.091.091,0,0,0,0-.1L26,29.092c-.03-.065-.061-.076-.126-.045l-1.316.623c-.065.031-.076.062-.045.127l.073.156c.03.062.06.073.125.043l.5-.238a2.354,2.354,0,0,0,.441-.28l.008.016a1.873,1.873,0,0,0-.306.366l-.433.7a.093.093,0,0,0,0,.1l.079.168c.032.065.063.076.127.045l1.317-.623C26.508,30.224,26.519,30.193,26.488,30.128Z"/><path d="M26.292,30.551l-.136.077a.281.281,0,0,0-.088.425.278.278,0,0,0,.41.139l.135-.077a.327.327,0,0,0-.321-.564Zm.2.334-.148.086c-.027.014-.055.007-.077-.032s-.013-.065.013-.08l.149-.085c.026-.014.055-.007.076.029S26.519,30.87,26.492,30.885Z"/><path d="M26.7,32.574c.41.272.591.343.856.156a.537.537,0,0,0,.1-.786.607.607,0,0,0-.679-.287c-.068.017-.084.051-.064.12l.049.181c.02.068.045.079.119.064a.252.252,0,0,1,.286.111.2.2,0,0,1-.045.287c-.163.115-.29-.028-.468-.144a.61.61,0,0,0-.719-.041l-.145.1c-.058.041-.064.074-.023.132l.578.82c.042.059.075.064.133.023l.124-.087c.056-.041.064-.074.023-.133l-.407-.577C26.477,32.47,26.584,32.5,26.7,32.574Z"/><path d="M28.455,33.871a.637.637,0,0,0-.822-.967l-.424.361a.637.637,0,0,0,.822.967ZM27.44,33.9a.224.224,0,0,1,.006-.348l.434-.368a.222.222,0,0,1,.342.051.219.219,0,0,1-.009.342l-.432.369A.223.223,0,0,1,27.44,33.9Z"/><path d="M28.323,34.826c.054-.056.164-.049.291.008.45.193.64.232.868,0a.539.539,0,0,0-.044-.79.6.6,0,0,0-.717-.161c-.063.029-.073.065-.042.128l.08.17c.032.064.058.07.128.042a.25.25,0,0,1,.3.058.2.2,0,0,1,.007.29c-.14.142-.29.023-.485-.059A.61.61,0,0,0,28,34.6l-.124.125c-.05.051-.05.084,0,.135l.712.7c.051.05.084.05.134,0l.106-.106c.048-.05.05-.085,0-.135Z"/><path d="M29.7,35.811c.465.154.659.176.865-.075a.538.538,0,0,0-.113-.783.6.6,0,0,0-.728-.1c-.062.033-.068.07-.031.131l.094.162c.038.061.064.065.131.03a.252.252,0,0,1,.3.033.2.2,0,0,1,.032.289c-.127.153-.287.047-.489-.017a.611.611,0,0,0-.7.148l-.113.136c-.045.055-.042.088.013.134l.771.638c.056.046.089.043.134-.013l.1-.115c.044-.054.042-.088-.013-.134l-.543-.449C29.454,35.768,29.565,35.765,29.7,35.811Z"/><path d="M32.158,36.962a.6.6,0,0,0-.238-.9l-.457-.294c-.061-.039-.093-.031-.131.029l-.789,1.226c-.038.06-.032.092.029.132l.457.294a.6.6,0,0,0,.913-.156Zm-.315-.2-.217.336a.263.263,0,0,1-.412.066L31,37.021l.519-.807.217.14A.266.266,0,0,1,31.843,36.758Z"/><path d="M32.73,36.559c-.064-.033-.1-.023-.128.041l-.671,1.292c-.034.064-.023.1.041.128l.848.44c.061.033.092.023.125-.041l.072-.138c.032-.062.023-.095-.039-.127l-.6-.311.146-.28L33,37.81c.062.032.095.023.128-.041l.072-.138c.032-.062.02-.094-.042-.126l-.475-.247.138-.265.577.3c.065.034.1.024.128-.038l.072-.138c.032-.064.022-.095-.041-.128Z"/><path d="M34.828,37.523l-.124-.047a.213.213,0,0,0-.138-.015l-.481.073c-.072.011-.1.034-.09.1l.023.167c.007.07.036.1.12.087l.256-.037L34,38.866c-.026.067-.013.1.054.123l.175.068c.065.026.095.013.121-.054l.533-1.357C34.905,37.579,34.892,37.549,34.828,37.523Z"/><path d="M35.736,37.8a.575.575,0,0,0-.8.4l-.142.46a.574.574,0,0,0,.436.781c.385.118.677,0,.777-.328.106-.341-.039-.546-.444-.67a1.194,1.194,0,0,0-.291-.059l.024-.075a.239.239,0,0,1,.34-.176c.138.042.2.109.217.217.009.073.028.1.1.093l.178-.01c.072-.005.1-.028.093-.1A.586.586,0,0,0,35.736,37.8Zm-.288.932c.19.059.237.144.2.27s-.141.165-.316.111a.234.234,0,0,1-.183-.326l.031-.1A.759.759,0,0,1,35.448,38.731Z"/><path d="M37.553,38.275l-.535-.087c-.071-.012-.1.008-.109.079L36.675,39.7c-.012.071.007.1.078.109l.535.088a.6.6,0,0,0,.775-.506L38.127,39A.6.6,0,0,0,37.553,38.275Zm.2.665-.064.393c-.029.18-.15.257-.35.224l-.254-.041.154-.944.253.041C37.7,38.646,37.786,38.759,37.756,38.94Z"/><path d="M39.465,38.507l-.927-.08c-.072-.006-.1.015-.1.085l-.127,1.451c-.006.071.014.1.086.1l.951.084c.07.006.094-.015.1-.087l.014-.154c.006-.07-.015-.1-.085-.1l-.671-.059.027-.314.534.047c.069.006.1-.015.1-.086l.014-.155c.006-.07-.018-.095-.087-.1l-.533-.047.026-.3.649.058c.071.006.1-.015.1-.085l.013-.155C39.558,38.539,39.538,38.514,39.465,38.507Z"/><path d="M41.7,38.482l-.164.007c-.075,0-.094.014-.123.076l-.393.8-.459-.765c-.032-.055-.056-.068-.135-.064l-.148.006c-.072,0-.094.027-.091.1L40.25,40.1c0,.07.026.092.1.089l.162-.007c.072,0,.094-.027.091-.1l-.021-.524a2.127,2.127,0,0,0-.092-.52h.019a1.917,1.917,0,0,0,.188.424l.179.287c.033.052.052.065.11.063l.107-.005a.1.1,0,0,0,.1-.072l.15-.3A2.321,2.321,0,0,0,41.511,39l.021,0a1.942,1.942,0,0,0-.057.524l.022.526c0,.069.027.091.1.088l.173-.007c.069,0,.091-.027.088-.1L41.8,38.57C41.8,38.5,41.77,38.479,41.7,38.482Z"/><path d="M42.849,38.4a.1.1,0,0,0-.126-.056l-.178.027c-.062.01-.09.028-.1.1L42.119,40c-.014.065.006.092.073.082l.16-.024c.112-.017.142-.04.152-.109l.041-.227.567-.086.1.2c.029.064.066.077.18.06l.172-.026c.068-.011.08-.043.047-.1ZM42.6,39.407l.065-.376a1.176,1.176,0,0,0,.006-.333l.02,0a1.381,1.381,0,0,0,.107.318l.173.338Z"/><path d="M44.8,39.007l-.067-.065a.485.485,0,0,0,.145-.527.5.5,0,0,0-.66-.385l-.622.156c-.07.017-.087.045-.069.115l.352,1.412c.017.07.046.086.115.069l.183-.045c.067-.017.084-.045.067-.115l-.119-.474.092-.024a.206.206,0,0,1,.258.077l.253.3c.049.062.094.07.208.042l.18-.045c.07-.017.068-.062.026-.109Zm-.443-.266-.312.078-.092-.368.313-.079a.19.19,0,1,1,.091.369Z"/><path d="M46.551,38.634c0-.069-.026-.094-.095-.094h-.189c-.071,0-.092.023-.094.095a.274.274,0,0,1-.219.257c-.189.067-.321.015-.382-.158l-.157-.445c-.061-.173.009-.3.2-.362a.273.273,0,0,1,.331.062c.046.054.074.057.133.015l.147-.119a.08.08,0,0,0,.015-.133A.616.616,0,0,0,45.5,37.6a.6.6,0,0,0-.437.815l.156.441a.581.581,0,0,0,.749.391l-.014.19c0,.047.013.064.054.049l.047-.016c.061-.019.085-.013.1.019s0,.065-.064.089a.228.228,0,0,1-.129.011c-.044,0-.047.021-.037.05l.031.08a.065.065,0,0,0,.07.051.469.469,0,0,0,.163-.03c.145-.051.278-.147.236-.327a.188.188,0,0,0-.253-.146l-.019.007,0-.09A.592.592,0,0,0,46.551,38.634Z"/><path d="M47.711,37.334a.686.686,0,0,0-1.239.576l.2.425a.686.686,0,0,0,1.239-.576Zm-.3.963c-.178.084-.317.049-.393-.116l-.2-.437c-.076-.164-.013-.292.165-.375s.318-.048.393.116l.2.437C47.649,38.085,47.585,38.215,47.408,38.3Z"/><path d="M49.482,36.318a.6.6,0,0,0-.91-.166l-.46.288c-.061.038-.068.069-.03.13l.772,1.235c.038.061.07.068.131.03l.46-.288a.6.6,0,0,0,.249-.892Zm-.222.937-.218.137-.508-.812.218-.135a.264.264,0,0,1,.412.072l.212.338A.264.264,0,0,1,49.26,37.255Z"/><path d="M51.052,36.1c-.042-.056-.076-.062-.131-.02l-.538.409-.19-.251.426-.324c.055-.043.062-.077.018-.134l-.093-.123c-.043-.056-.077-.059-.133-.017l-.426.325-.181-.239.519-.394c.057-.043.061-.076.02-.131l-.1-.124c-.043-.057-.075-.062-.133-.018l-.741.564c-.058.043-.062.076-.019.133l.881,1.159c.044.058.077.062.133.018l.76-.578c.056-.042.061-.074.017-.132Z"/><path d="M52.466,34.815c-.047-.05-.082-.053-.133,0l-.51.486c-.054-.057-.043-.166.016-.291.208-.444.251-.633.027-.868a.538.538,0,0,0-.79.022.6.6,0,0,0-.182.711c.027.065.062.076.127.046l.172-.075c.065-.029.072-.055.046-.127a.248.248,0,0,1,.068-.3.2.2,0,0,1,.289,0c.138.144.015.29-.073.483a.607.607,0,0,0,.065.715l.122.128c.049.052.082.053.134,0l.724-.691c.051-.05.052-.082,0-.134Z"/><path d="M52.859,33.085a.637.637,0,0,0-.835.955l.419.367a.637.637,0,0,0,.836-.955Zm.18,1a.222.222,0,0,1-.343.044l-.428-.374a.222.222,0,0,1,0-.345.22.22,0,0,1,.339-.042l.428.374A.22.22,0,0,1,53.039,34.084Z"/><path d="M53.084,32.04c-.058-.042-.09-.037-.132.017l-.079.107a.209.209,0,0,0-.051.13l-.056.482c-.008.072.007.1.073.114l.166.022c.07.012.1-.009.116-.093l.033-.257.871.651c.057.044.09.039.133-.019l.113-.15c.041-.055.036-.088-.021-.131Z"/><path d="M54.751,31.325l-.469-.3A.636.636,0,0,0,53.6,32.1l.47.3a.635.635,0,0,0,.678-1.069Zm-.139.66a.222.222,0,0,1-.332.1l-.479-.3a.259.259,0,0,1,.275-.435l.479.3A.221.221,0,0,1,54.612,31.985Z"/><path d="M24.562,22.333a1.367,1.367,0,0,0,1.613-1.357,1.412,1.412,0,0,0-.68-1.584c-.14-.07-.219-.045-.29.1L24.941,20c-.074.142-.048.207.1.289a.493.493,0,0,1,.256.566c-.053.4-.245.529-.6.482l-.913-.123c-.351-.048-.5-.226-.448-.623a.491.491,0,0,1,.4-.478c.164-.035.2-.091.172-.253l-.118-.563c-.03-.157-.1-.2-.253-.172a1.414,1.414,0,0,0-1.075,1.348,1.368,1.368,0,0,0,1.2,1.735Z"/><path d="M23.185,18.2l2.988,1.055c.148.052.219.018.273-.135l.721-2.043c.052-.148.019-.219-.129-.272l-.435-.153c-.153-.054-.219-.019-.271.13l-.461,1.3-.458-.161.356-1.008c.054-.153.02-.224-.133-.278l-.43-.151c-.147-.052-.219-.018-.272.134l-.356,1.008-.425-.15.445-1.261c.054-.153.02-.223-.133-.277l-.43-.152c-.148-.052-.218-.018-.273.135l-.706,2C23,18.072,23.037,18.143,23.185,18.2Z"/><path d="M24.444,14.906l2.7,1.652c.134.083.21.064.294-.074l.3-.488c.085-.138.064-.21-.07-.292l-.838-.512.06-.1a.374.374,0,0,1,.419-.188l.761.085c.193.023.309-.042.449-.271l.286-.466c.087-.143.011-.23-.143-.241l-.976-.063a1.291,1.291,0,0,0-.257,0,1.114,1.114,0,0,0-.6-1.01,1.142,1.142,0,0,0-1.7.438l-.753,1.23C24.292,14.748,24.311,14.824,24.444,14.906Zm1.383-.97a.3.3,0,0,1,.454-.113.31.31,0,0,1,.115.462l-.285.466-.57-.349Z"/><path d="M26.778,12.112c.118.112.193.114.3,0l.52-.546,1.806,1.72c.114.109.189.11.3-.007l.394-.414c.111-.118.11-.2,0-.305l-1.807-1.72.517-.542c.111-.117.109-.2-.008-.307l-.33-.315c-.113-.108-.192-.106-.3.011L26.441,11.5c-.111.117-.106.192.008.3Z"/><path d="M30.1,8.407h.6a.2.2,0,0,1,.2.2V11.8a.2.2,0,0,1-.2.2h-.6a.2.2,0,0,1-.2-.2V8.609a.2.2,0,0,1,.2-.2Z" transform="translate(0.134 20.798) rotate(-37.846)"/><path d="M32.1,10.867c.077.136.153.157.293.077l.5-.282c.141-.08.158-.153.08-.29l-.5-.889.93-.526c.141-.08.162-.156.082-.3l-.225-.4c-.077-.137-.153-.158-.294-.078l-.929.527L31.741,8.2,32.9,7.544c.142-.08.162-.156.083-.3l-.225-.4c-.077-.137-.152-.158-.294-.078L30.622,7.818c-.141.08-.162.156-.085.292Z"/><path d="M34.19,6.093h.6a.2.2,0,0,1,.2.2V9.483a.2.2,0,0,1-.2.2h-.6a.2.2,0,0,1-.2-.2V6.295a.2.2,0,0,1,.2-.2Z" transform="translate(-0.52 12.999) rotate(-21.189)"/><path d="M35.585,7.91a1.369,1.369,0,0,0,1.823,1.06,1.414,1.414,0,0,0,1.261-1.178c.019-.155-.032-.222-.191-.239l-.571-.074c-.16-.023-.212.025-.239.191a.491.491,0,0,1-.445.432c-.392.084-.581-.051-.656-.4l-.194-.9c-.074-.347.043-.548.435-.632a.489.489,0,0,1,.584.211c.087.142.152.154.3.077l.489-.3c.139-.081.157-.163.078-.3A1.415,1.415,0,0,0,36.621,5.3a1.368,1.368,0,0,0-1.227,1.715Z"/><path d="M38.924,8.575l.532.008c.253,0,.32-.051.373-.207l.121-.363,1.095.016.11.366c.039.157.115.214.378.218l.546.008c.152,0,.2-.068.151-.205L41.106,5.177c-.048-.131-.114-.168-.261-.17L40.268,5c-.147,0-.213.028-.266.173L38.79,8.366C38.737,8.5,38.767,8.573,38.924,8.575Zm1.467-1.949a2.707,2.707,0,0,0,.107-.7h.05a3.205,3.205,0,0,0,.1.711l.179.6L40.2,7.221Z"/><path d="M42.537,8.718l1.2.294A1.367,1.367,0,0,0,45.583,8l.18-.737a1.363,1.363,0,0,0-1.172-1.746l-1.2-.294c-.157-.039-.224,0-.261.155L42.376,8.46C42.338,8.612,42.379,8.679,42.537,8.718Zm1.405-2.444.4.1c.4.1.526.321.441.67l-.173.708c-.086.349-.3.489-.7.391l-.4-.1Z"/><path d="M46.757,10.206a1.364,1.364,0,0,0,2.026-.565l.409-.813a1.363,1.363,0,0,0-.748-1.965,1.365,1.365,0,0,0-2.03.563l-.409.813A1.363,1.363,0,0,0,46.757,10.206Zm.121-1.475.451-.894a.559.559,0,0,1,.99.5l-.452.894a.47.47,0,0,1-.711.185C46.84,9.256,46.734,9.016,46.878,8.731Z"/><path d="M49.234,11.632l.9.848a1.368,1.368,0,0,0,2.105.032l.52-.554a1.365,1.365,0,0,0-.162-2.1l-.9-.846c-.118-.111-.2-.109-.3,0l-2.172,2.311C49.113,11.443,49.116,11.522,49.234,11.632ZM51.662,10.2l.3.285a.5.5,0,0,1,.054.8l-.5.532a.5.5,0,0,1-.8,0l-.3-.284Z"/><path d="M51.543,12.629h3.188a.2.2,0,0,1,.2.2v.6a.2.2,0,0,1-.2.2H51.543a.2.2,0,0,1-.2-.2v-.6A.2.2,0,0,1,51.543,12.629Z" transform="matrix(0.793, -0.609, 0.609, 0.793, 2.996, 35.081)"/><path d="M53.424,14.18a1.369,1.369,0,0,0-.513,2.046c.472.879,1.213,1.115,1.843.777l.589-.317c.144-.076.168-.148.091-.29l-.6-1.129c-.075-.139-.15-.162-.293-.085l-.334.18c-.143.077-.162.15-.088.288l.23.428-.089.048c-.192.1-.4-.02-.562-.319-.19-.353-.112-.572.2-.741l.813-.435c.312-.168.539-.111.728.242a.49.49,0,0,1-.041.62c-.112.123-.11.191.008.3l.427.387c.116.11.2.105.3-.009a1.41,1.41,0,0,0,.082-1.722,1.368,1.368,0,0,0-1.988-.7Z"/><path d="M54.016,17.253h3.19a.2.2,0,0,1,.2.2v.6a.2.2,0,0,1-.2.2H54.017a.2.2,0,0,1-.2-.2v-.6A.2.2,0,0,1,54.016,17.253Z" transform="translate(-2.755 18.867) rotate(-18.798)"/><path d="M56.9,18.713l.132.743-2.458.439c-.154.028-.2.088-.172.247l.1.563c.028.16.093.205.248.178l2.458-.44.132.738c.028.159.093.2.252.176l.449-.08c.155-.028.2-.093.171-.252l-.441-2.469c-.028-.158-.093-.2-.247-.171l-.449.08C56.914,18.494,56.868,18.553,56.9,18.713Z"/><path d="M58.1,23.082l-3.161-1.289c-.134-.056-.206-.029-.212.128l-.021.532c-.01.252.043.32.2.377l.36.131-.043,1.092-.369.1c-.158.034-.217.108-.228.371l-.022.546c0,.152.064.2.2.155l3.263-1.042c.133-.045.171-.11.177-.256l.023-.577C58.27,23.206,58.243,23.139,58.1,23.082Zm-.765.527a3.177,3.177,0,0,0-.712.084l-.6.164.025-.633.589.212a2.711,2.711,0,0,0,.7.122Z"/><path d="M57.8,26.124l-3.077-.758c-.152-.037-.219,0-.258.16l-.48,1.947c-.037.152,0,.22.156.257l.447.111c.157.038.22,0,.257-.156l.293-1.184,2.423.6c.152.038.219,0,.257-.155l.137-.555C58,26.229,57.954,26.161,57.8,26.124Z"/><path d="M34.478,45.374a3.788,3.788,0,0,0-.4-.44,3.7,3.7,0,0,0-.591.166,3.213,3.213,0,0,1-1.605.241,1.788,1.788,0,0,1-.33-.093,2.794,2.794,0,0,1-1.333-1.438A3.81,3.81,0,0,0,29.9,43.3a3.43,3.43,0,0,0-.61.047,4.106,4.106,0,0,1-1.247.026,1.859,1.859,0,0,1-.683-.262,2.789,2.789,0,0,1-1.022-1.668,3.67,3.67,0,0,0-.207-.566.805.805,0,0,0-.1-.023,5.017,5.017,0,0,0-.5-.051,6.653,6.653,0,0,1-.721-.077,2.1,2.1,0,0,1-1.129-.533,2.791,2.791,0,0,1-.674-1.832,3.642,3.642,0,0,0-.093-.6,1.043,1.043,0,0,0-.114-.049L11.866,56.04l9.847-.43,3.24,8.237,11.573-17.28a1.719,1.719,0,0,1-1.093-.288A3.986,3.986,0,0,1,34.478,45.374Z"/><path d="M37.887,36.431A13.7,13.7,0,1,0,26.835,20.515,13.7,13.7,0,0,0,37.887,36.431Z"/><path d="M63.265,22.535c-.012-.738-1.17-1.4-1.253-2.119s.889-1.637.734-2.351-1.421-1.136-1.646-1.831.552-1.779.259-2.448-1.614-.836-1.971-1.475.2-1.851-.222-2.453-1.746-.506-2.22-1.064-.166-1.853-.694-2.363-1.809-.156-2.385-.612-.523-1.784-1.141-2.182-1.8.2-2.459-.133-.86-1.646-1.548-1.915-1.725.553-2.437.353S45.119.5,44.391.365s-1.6.875-2.324.817S40.633-.013,39.907,0s-1.4,1.17-2.119,1.254S36.15.363,35.437.519,34.3,1.94,33.606,2.166s-1.779-.553-2.449-.26-.835,1.615-1.474,1.972-1.852-.2-2.453.221-.506,1.746-1.065,2.221-1.852.165-2.362.693-.156,1.809-.612,2.385-1.785.522-2.183,1.141.2,1.8-.132,2.46-1.646.86-1.916,1.547.553,1.726.353,2.437-1.446,1.163-1.577,1.892.875,1.6.817,2.324-1.194,1.433-1.182,2.16,1.171,1.395,1.254,2.119-.889,1.637-.734,2.35,1.421,1.137,1.646,1.831-.552,1.779-.259,2.449,1.615.836,1.971,1.475-.2,1.85.222,2.453,1.746.5,2.22,1.064.166,1.853.693,2.363,1.81.155,2.386.611.522,1.785,1.141,2.183,1.8-.2,2.46.133.86,1.646,1.547,1.915,1.726-.553,2.437-.353,1.162,1.446,1.892,1.577,1.6-.876,2.323-.817S40,45.906,40.731,45.894s1.395-1.17,2.118-1.254,1.638.89,2.351.734,1.136-1.421,1.831-1.646,1.778.552,2.448.26.837-1.615,1.476-1.972,1.851.2,2.452-.222.506-1.746,1.064-2.22,1.853-.165,2.363-.693.156-1.81.613-2.386,1.783-.522,2.181-1.141-.2-1.8.133-2.459,1.646-.861,1.915-1.547-.553-1.727-.352-2.437,1.446-1.163,1.577-1.893-.876-1.6-.817-2.323S63.278,23.262,63.265,22.535Zm-4.1,3.81A19.15,19.15,0,1,1,43.716,4.1,19.151,19.151,0,0,1,59.165,26.345Z"/></svg>