<svg xmlns="http://www.w3.org/2000/svg" viewBox="0 0 63.246 54.852"><path d="M12.436,41.244a.974.974,0,0,1-.132-.008,1,1,0,0,1-.865-.9,4.232,4.232,0,0,1,.085-1.281,1,1,0,0,1-.669.257,1.137,1.137,0,0,1-.115-.006,1,1,0,0,1-.88-.894,3.631,3.631,0,0,1,.261-1.751,1.031,1.031,0,0,1,.146-.332l.049-.071a3.646,3.646,0,0,1,.359-.532l.228-.337a1,1,0,0,1,.276-.273l.808-.535a19.518,19.518,0,0,1-1.15-2.655c-.091.142-.193.287-.282.431-.435.713-.855,1.462-1.261,2.186l-.454.807c-.076.134-.143.276-.21.417a4.258,4.258,0,0,1-.772,1.218c-.213.215-.422.441-.629.67a25.542,25.542,0,0,0,4.23,5.631l1.4-2.132A1,1,0,0,1,12.436,41.244Z"/><path d="M12.988,36.5l-.226.15a3.278,3.278,0,0,0-.5.787Z"/><path d="M11.477,36.321a2.75,2.75,0,0,0-.307.455l-.075.11.037-.037a2.672,2.672,0,0,0-.277,1.459,6.318,6.318,0,0,1,1.258-2.431l.454-.3c-.027-.044-.054-.087-.08-.131l-.756.5Z"/><path d="M13.59,40.039v-.011l-.013.031Z"/><path d="M42.742,10.328c-.206-.032-.4-.032-.594-.046.071.061.137.128.208.19.118.012.236.025.357.044.555.085.863.263.918.529a.546.546,0,0,1,0,.181l-.3.13c.11.108.212.223.319.334a1.034,1.034,0,0,0,.169-.683C43.745,10.656,43.384,10.427,42.742,10.328Z"/><path d="M20.7,43.8l.034.178.066.1.012.033a.669.669,0,0,0,.111.176,8.551,8.551,0,0,0,1.081,2.2c.456.764,1.122,1.386,1.581,2.128.228-.237-.984-1.7-1.426-2.584a12.567,12.567,0,0,0-.838-1.655l-.248-1.134c-.2-.094-.4-.188-.6-.289A8.043,8.043,0,0,0,20.7,43.8Z"/><path d="M13,38.131a3.245,3.245,0,0,0-.563,2.113,19.671,19.671,0,0,1,1.134-2.533l.243-.313c-.043-.056-.084-.113-.126-.169l-.679.878Z"/><path d="M14.748,38.524c-.025.221-.047.441-.073.661-.041.343-.2.679,0,1.022l-2.483,3.779c.108.1.215.2.325.3.233-.317.469-.633.691-.957.259-.38.485-.783.716-1.181.1-.178.2-.356.3-.536L14.96,40.5l.394-.284c0-.311,0-.663,0-1.027C15.142,38.974,14.947,38.747,14.748,38.524Z"/><path d="M53.7,26.624l-.07,0q-.648-.032-1.3-.059c-1-.044-2.031-.089-3.052-.164-.037,0-.072-.008-.109-.011A19.51,19.51,0,0,1,48,32.139l5.113,2.44a25.217,25.217,0,0,0,1.7-8.192,1.74,1.74,0,0,1-.875.247C53.864,26.634,53.782,26.629,53.7,26.624Z"/><polygon points="23.842 20.733 23.882 20.643 23.871 20.644 27.928 16.368 27.859 16.235 23.684 20.43 23.842 20.733"/><path d="M25.765,20.264l-.12.087c-.054,0-.126-.02-.163-.023-.053.026-.1.054-.155.081.264-.716.451-1.261.5-1.412a6.407,6.407,0,0,0,2.2-2.428l-.1-.2a6.077,6.077,0,0,1-2.225,2.476l-.033.018-.013.035c-.006.02-.24.71-.583,1.632-.032.014-.063.027-.1.038q-.517.183-1.035.361l2.557,4.9a.478.478,0,0,1,.046-.044,2.315,2.315,0,0,1,.413-.3h0l.2-.067c.091-.023.186-.04.28-.061L26.957,26.7l.417.8.429-1.109a4.418,4.418,0,0,0,.316-.815l.128-.331a5.817,5.817,0,0,0,.944-.16,13.472,13.472,0,0,0,2.758-1.012L30.713,21.7c-.247.208-.492.408-.725.59l-1.509-.183.988-.833.959-.123-.067-.13-.64.04.459-.386-.106-.2-1.95,1.59-1.085-.131a.536.536,0,0,1-.064-.112c.3-.209.715-.486,1.07-.717.283-.13.57-.253.857-.375.357-.152.729-.273,1.069-.452l-.313-.6c-.671.294-1.338.6-1.987.952l.025-.054c.373-.253,1-.684,1.79-1.229L29.3,19l-.75.425.693-.533-.144-.276-.254.193c-1.018.664-1.964,1.443-3.037,2.019-.027-.024-.052-.048-.078-.073l.275-.274.426-.291,2.506-1.885-.128-.245-2.939,2.124A.284.284,0,0,0,25.765,20.264Zm.762,2.152,3.251.038a7.9,7.9,0,0,1-.85.569c-.088.032-.177.066-.265.1a5.122,5.122,0,0,1-.673.129,3.82,3.82,0,0,1-.455.028,3.019,3.019,0,0,1-1.362-.3A4.072,4.072,0,0,1,26.527,22.416Z"/><path d="M34.995,29.911l-2.15.345c-.072.011-.143.034-.215.048q-1.62.3-3.238.6h-.006c-.021,0-.046-.018-.09-.074l.326-.174-.024-.02c.192-.1.383-.193.573-.294.416-.221.827-.454,1.244-.675q1.213-.647,2.432-1.285l.277-.144-.339-.648c-.7.353-1.4.709-2.1,1.061-.453.226-.91.443-1.367.659-.522.247-1.049.482-1.569.732-.012.006-.022.014-.033.02l.518.992.041,0-.039.008.363.7,5.853-.976Z"/><path d="M47.632,33.07c-.094.221-.191.441-.293.658l4.946,2.612.057.037c.138-.287.267-.579.4-.872Z"/><path d="M29.887,28.409c.451-.213.9-.427,1.346-.65.383-.191.765-.385,1.147-.579.308-.156.63-.312.945-.47l-.911-1.746a14.412,14.412,0,0,1-2.985,1.093c-.152.037-.3.069-.44.1a6.664,6.664,0,0,1-.266.634l-.458,1.182a.959.959,0,0,1-.049.109l-.273.513.309.593c.022-.012.036-.029.059-.04.3-.145.609-.286.914-.427C29.446,28.615,29.667,28.513,29.887,28.409Z"/><path d="M51.774,37.2l-4.881-2.578a19.817,19.817,0,0,1-2.873,4.049,1.623,1.623,0,0,1,.03.3c.016.028.031.055.044.082.128.25.26.5.391.749l.087.167c.066.125.131.251.2.376.134.262.266.524.417.776.451.756.9,1.493,1.361,2.2.11.166.233.329.347.5a25.524,25.524,0,0,0,4.991-6.544Z"/><path d="M44.289,44.158c-.211-.308-.4-.621-.575-.923-.134-.226-.267-.453-.41-.672-.355-.543-.825-1.251-1.326-1.947-.324.266-.654.525-.994.771l-5.049-9.675-5.854.977L35.985,44a19.462,19.462,0,0,1-13.779-.262l.053.241a11.909,11.909,0,0,1,.71,1.416c.039.085.067.152.085.188a11.73,11.73,0,0,0,.653,1.049c.725,1.09,1.3,1.951.6,2.677a1,1,0,0,1-.719.306.958.958,0,0,1-.107-.005,1,1,0,0,1-.744-.469,8.885,8.885,0,0,0-.689-.917,10.122,10.122,0,0,1-.9-1.225l-.064-.1a8.729,8.729,0,0,1-1.113-2.239c-.016-.028-.031-.058-.046-.091l-.014-.018a1.015,1.015,0,0,1-.157-.38l-.021-.112a10.127,10.127,0,0,1-.389-1.737,19.7,19.7,0,0,1-2.988-2.193v.088a1,1,0,0,1-.416.813l-.19.137-.054.039-.61.927q-.144.261-.294.519l-.095.165c-.205.354-.416.721-.661,1.079-.187.273-.383.539-.58.8-.06.081-.116.165-.176.246a25.328,25.328,0,0,0,31.861.387C44.854,44.945,44.565,44.56,44.289,44.158Z"/><path d="M5.866,34.769l.047-.065c.268-.374.54-.745.812-1.116.439-.6.894-1.22,1.318-1.836.443-.646.873-1.329,1.288-1.99l.441-.7c.078-.122.153-.246.231-.369a19.485,19.485,0,0,1,7.92-19.306l3.782,7.248.239-.455,2.694-5.364c.032-.078.1-.224.187-.4l-1.9-3.647A19.545,19.545,0,0,1,40.862,9.3a7.759,7.759,0,0,1,.809-.053,8.007,8.007,0,0,1,1.223.1c1.44.222,1.81,1.015,1.9,1.468a2.192,2.192,0,0,1-.456,1.645,19.638,19.638,0,0,1,4.8,11.613c.407.052.814.1,1.216.132.886.075,1.8.111,2.687.145.422.017.844.034,1.265.054a1.4,1.4,0,0,1,.363.07l.054.015a1.036,1.036,0,0,1,.1.042A25.389,25.389,0,1,0,5.865,34.77Z"/><path d="M44.141,42.016c.337.517.624,1.068.972,1.576.258.374.534.736.8,1.1l.231-.2c-.144-.207-.3-.409-.436-.619-.485-.731-.937-1.483-1.387-2.235-.232-.388-.426-.8-.637-1.2-.162-.308-.325-.616-.484-.926h0c-.153.149-.3.3-.464.447l.011.016C43.232,40.643,43.691,41.327,44.141,42.016Z"/><path d="M6.726,35.287a1.515,1.515,0,0,0-.333.612c0,.026-.008.049-.011.074.116.252.235.5.359.749.136-.147.264-.3.405-.444a6.559,6.559,0,0,0,.823-1.424c.573-1.01,1.128-2.031,1.733-3.022.237-.389.49-.767.744-1.146-.054-.191-.1-.386-.149-.58-.468.743-.934,1.488-1.43,2.212C8.176,33.323,7.437,34.3,6.726,35.287Z"/><path d="M22.267,17.714l.122.233L23.6,15.539l-.193,1.109-.826,1.663.166.319,1.36-2.779.658-.325-1.87,3.387.211.4,1.752-3.169-.664,3.209-.646.808.109.208,3.85-4.815L27.4,15.35c-.841,1.051-1.884,2.354-2.914,3.643l.406-2.271,2.29-1.789-.086-.166-2.16,1.708.123-.689,1.32-2.392-.212-.407L24.889,15.3l-.683.347,1.072-2.191,0,.03.05-.129q.258-.525.5-1.018l-.142-.274-.2.394.046-.68-.13-.251-2.564,5.105Zm1.455-2.421L25.378,12l-.054.788-1.6,3.229.1-.875Z"/><path d="M50.27,25.2c-.362-.03-.722-.08-1.082-.124,0,.1.016.207.016.313.05,0,.1.012.151.016,1.439.105,2.883.15,4.324.221.088,0,.178.013.267.013a.738.738,0,0,0,.524-.184,1.308,1.308,0,0,0-.213-.054C52.928,25.331,51.6,25.306,50.27,25.2Z"/><path d="M63.087,40.878q-1.173-.513-2.345-1.025a9.162,9.162,0,0,0-1.007-.421A15.108,15.108,0,0,1,57,38.144q-.483-.256-.968-.509a5.78,5.78,0,0,1-1.209-.65,2.346,2.346,0,0,0-.875-.507l-.844-.8-12.9-6.155a3.962,3.962,0,0,0-1.756-.154c-.063.011-.182-.084-.213-.157a8.549,8.549,0,0,0-1.506-2.468.491.491,0,0,0-.361-.163,4.076,4.076,0,0,0-1.093.273c-1.209.576-2.4,1.2-3.6,1.8-.453.226-.91.443-1.367.659-.522.247-1.049.482-1.569.732a.351.351,0,0,0-.181.149l-.6.316-.4.179.016.025-.274.144-.9-1.5.932-1.755.471-1.216a4.458,4.458,0,0,0,.315-.815l.128-.331a5.817,5.817,0,0,0,.944-.16,13.54,13.54,0,0,0,3.765-1.559l.428-.139a.233.233,0,0,0,.209.089c.488-.063.978-.115,1.461-.207a12.815,12.815,0,0,0,1.351-.336c.3-.093.586-.26.887-.367s.611-.183.919-.266a.386.386,0,0,1,.224-.014c.326.132.655.264.969.423,1.359.689,2.71,1.394,4.072,2.077a1.777,1.777,0,0,0,.673.177c.679.045,1.363.03,2.041.091,1.057.095,2.107.268,3.165.345,1.439.105,2.882.15,4.324.221a.962.962,0,0,0,.791-.171,1.283,1.283,0,0,0-.213-.054c-1.329-.065-2.662-.09-3.987-.2-1.164-.1-2.321-.286-3.48-.445a3.755,3.755,0,0,1-1-.209,2.71,2.71,0,0,0-.994-.2c-.142-.006-.334,0-.413-.082a3.224,3.224,0,0,0-1.444-.681c-.781-.273-1.567-.534-2.335-.84-.56-.224-1.1-.507-1.639-.772a1.249,1.249,0,0,1-.132-.076,1.669,1.669,0,0,0,.688-.082h0a.648.648,0,0,0,.4-.207c.408-.245.929-.622,1.252-.864.115-.046.233-.089.35-.128a4.96,4.96,0,0,1,.829-.137l1.026-.042a.832.832,0,0,0,.128.05c.158.046.311.111.465.173a.449.449,0,0,0,.639-.351,1.2,1.2,0,0,1,.091-.291,1.61,1.61,0,0,0,.188-1.11c-.045-.157-.272-.253-.393-.4a.716.716,0,0,0-1.175.083.724.724,0,0,1-.115.138l-.868-.448c-.043-.349-.08-.346-.423-.147l-.022.012a1.989,1.989,0,0,0-.776-.281,2.919,2.919,0,0,0-1.9.484,5.966,5.966,0,0,0-.961.77l-.092.028-.045-.025c-.03-.017-.077,0-.117,0a2.636,2.636,0,0,1-.568.006.455.455,0,0,0-.584.274c-.036.075-.21.108-.324.118-.265.024-.486.1-.551.255l-2.189.8-1.266-.23c.737-.686,1.309-1.253,1.446-1.389a6.515,6.515,0,0,0,3.95-1.945c1.7-1.7,2.154-2.225,2.226-2.308.287-.179,3.915-2.47,3.666-3.7-.072-.351-.434-.58-1.075-.679a7.07,7.07,0,0,0-5.565,1.546l-4.83,3.633-6.474,4.679a.284.284,0,0,0-.108.078l-.12.087c-.054,0-.126-.02-.163-.023-.053.026-.1.054-.155.081.264-.716.45-1.261.5-1.412A6.518,6.518,0,0,0,28.5,15.5c.762-2.282.94-2.95.967-3.056.178-.289,2.41-3.953,1.642-4.94-.221-.284-.646-.327-1.265-.131a7.071,7.071,0,0,0-4.3,3.858l-2.712,5.4L20.46,21.149a1.438,1.438,0,0,0-.406.645,3.529,3.529,0,0,0-.2.431,4.931,4.931,0,0,0-.755.674c-.489.552-.938,1.14-1.4,1.712a3.834,3.834,0,0,0-.639,1.3l-.256-.075.254.007c-.141-.15-.211-.273-.316-.33-.679-.367-1.36-.735-2.057-1.066a.562.562,0,0,0-.51.067,10.7,10.7,0,0,0-1.232,1.352c-.433.6-.779,1.261-1.168,1.892q-.57.924-1.152,1.843c-.577.909-1.139,1.829-1.748,2.717-.691,1.005-1.43,1.977-2.141,2.969a1.515,1.515,0,0,0-.333.612.657.657,0,0,1-.241.534,1.07,1.07,0,0,0-.239.285c-.282.431-.536.884-.843,1.3-.6.809-1.2,1.619-1.85,2.389-.679.808-1.41,1.573-2.123,2.352-.36.393-.731.777-1.1,1.166l.083.109A1.956,1.956,0,0,0,.5,43.772c.562-.58,1.109-1.174,1.66-1.764.58-.621,1.182-1.223,1.73-1.871.682-.807,1.29-1.678,1.986-2.471.411-.469.825-.94,1.266-1.388a6.6,6.6,0,0,0,.824-1.424c.572-1.01,1.127-2.031,1.732-3.022.529-.867,1.126-1.692,1.675-2.548.4-.62.765-1.261,1.146-1.893a6.738,6.738,0,0,0,.783-1.352c.2-.636.876-.535,1.189-.946.01-.012.061,0,.088.009a10.772,10.772,0,0,1,1.1.485c.353.2.677.452,1.058.72l.132.172-.01.031c-.221-.106-.465-.23-.717-.337-.113-.049-.265-.118-.358-.079-.192.078-.452.142-.454.414a.786.786,0,0,0,0,.1l-.163.2a1.906,1.906,0,0,0-.068,1.006c.034.781.022,1.565.012,2.348-.014,1.2-.053,2.389-.059,3.583l-3.331,2.207-.254.375a2.689,2.689,0,0,0-.307.455l-.075.11.037-.037a2.672,2.672,0,0,0-.277,1.459,6.329,6.329,0,0,1,1.257-2.431l2.949-1.952v.118c0,.488-.015.974-.04,1.46l-2.015,2.6L13,38.131a3.245,3.245,0,0,0-.563,2.113,19.535,19.535,0,0,1,1.134-2.533L15,35.863c-.071,1.11-.193,2.216-.326,3.322-.041.343-.194.679,0,1.022l-4.73,7.2-.047.2L7.253,50.88,6.205,52.967c-.211.38-.417.787-.56,1.114l-.094.188-.017.087a.657.657,0,0,0-.071.346l0,0-.031.155,2.179-3.7,1.619-2.262a.806.806,0,0,0,.378-.4l.721-.75a1.086,1.086,0,0,0,.126-.185c.009-.026.02-.05.03-.076l1.172-1.958.076-.115c.083-.12.166-.24.246-.362.386-.585.83-1.132,1.226-1.711.26-.38.486-.783.717-1.181.1-.178.2-.356.3-.536L14.96,40.5l.394-.284c0-.514-.009-1.131,0-1.748.01-.75.024-1.5.055-2.25.014-.321.038-.641.061-.962L16.905,33.4l1.144-.9a.415.415,0,0,1,.148.106c.189.248.349.518.535.8a1.848,1.848,0,0,0-.257.492l-.151.236-.113.593.176.12.407-.264.5-.875.724,5.878c.016.264.033.527.057.79.042.477.149.948.2,1.424a9.855,9.855,0,0,0,.422,2l.033.178.067.1.012.033a.669.669,0,0,0,.111.176,8.551,8.551,0,0,0,1.081,2.2c.456.764,1.122,1.386,1.581,2.128.228-.237-.984-1.7-1.426-2.583a12.5,12.5,0,0,0-.838-1.656l-.7-3.235-.509-4.351c0-.117.009-.224,0-.329-.029-.409-.05-.819-.1-1.226l-.029-.457-.145-.419a1.744,1.744,0,0,1-.035-.43,3.708,3.708,0,0,0-.013-.6l0-.1-.193-.887a.354.354,0,0,1,.177-.232,1.188,1.188,0,0,0,.547-.964c.007-.138.038-.275.061-.436a.8.8,0,0,1,.14.065c.381.314.747.647,1.144.94.492.364,1.009.694,1.516,1.038a1.307,1.307,0,0,0,.323.2,1.206,1.206,0,0,0,1.207-.532c.084-.213.252-.5-.115-.67-.074-.034-.106-.156-.157-.238l.075-.09c.221.14.444.277.664.42s.3.479.643.508a1.583,1.583,0,0,0,1.2-.222,1.41,1.41,0,0,1,.659-.229,2.489,2.489,0,0,1,.617.071l9.909-1.653c.012.022.024.045.035.068.295.6.573,1.213.859,1.819.574,1.214,1.163,2.421,1.72,3.643a25.723,25.723,0,0,1,1.011,2.439,6.247,6.247,0,0,0,.917,1.688c.482.667.941,1.351,1.391,2.04.337.517.624,1.068.973,1.576.478.7.991,1.368,1.494,2.047.473.64.946,1.28,1.433,1.91.071.093.214.131.323.194l.056-.094c-.379-.515-.765-1.025-1.137-1.544-.53-.74-1.069-1.474-1.572-2.232-.484-.73-.936-1.481-1.386-2.234-.232-.388-.427-.8-.637-1.2-.163-.308-.326-.616-.484-.926-.068-.132-.2-.287-.173-.4.087-.375-.149-.625-.3-.9-.516-.929-1.092-1.827-1.578-2.771-.74-1.441-1.428-2.909-2.128-4.37-.126-.264-.223-.544-.331-.835l1.551-.258,12.04,6.36c.149.1.3.2.451.294a.649.649,0,0,0,.273.072l.99.321.564.25a9.766,9.766,0,0,1,1.073.495A28.094,28.094,0,0,0,59.2,39.478c1.174.5,2.356.978,3.538,1.458a3,3,0,0,0,.487.112l.019-.091C63.193,40.931,63.141,40.9,63.087,40.878ZM27.687,14.3l-2.754,2.178.123-.689c1.245-2.255,2.5-4.527,3.368-6.1Zm14-3.862-4.231,2.932.6-1.246,1.909-1.467A6.724,6.724,0,0,1,41.689,10.435Zm-3.961,5.136-3.435.727.416-.562c2.118-1.467,4.251-2.945,5.731-3.972ZM24.889,15.3l-.683.347,1.072-2.191,0,.03.05-.129.95-1.941v1.369Zm11.143-1.62,1.713-1.316-.608,1.227-2.36,1.636-.766.007,1.934-1.487-.015.026Zm-3.656,4.838c-1.572.691-3.183,1.293-4.707,2.116l.025-.054c.993-.675,3.786-2.606,6.675-4.607Zm-2.6,3.938a8,8,0,0,1-.849.569c-.09.032-.178.066-.266.1a5.091,5.091,0,0,1-.673.129,3.208,3.208,0,0,1-1.817-.274,4.072,4.072,0,0,1,.354-.564Zm.209-.16-1.508-.183.987-.833,2.041-.262C31,21.467,30.472,21.917,29.987,22.294Zm-1.865-.227-1.085-.131a.536.536,0,0,1-.064-.112c.3-.208.715-.486,1.07-.717.283-.13.57-.253.857-.375.374-.159.768-.282,1.123-.476.264-.145.533-.276.806-.4Zm1.3-3.131-.867.491,5.276-4.055h.734Zm3.992-3.59.475-.742-.153.1,2.948-2.217-.4.682Zm-.564.428-3.381,2.567.59-.874,3.456-2.6ZM29.129,18.6l-.281.214c-1.018.664-1.965,1.443-3.037,2.019l-.078-.073.275-.274.426-.291,3.36-2.527Zm-7.454,2.524a1.638,1.638,0,0,0-.235.236l-.035.014c.712-1.456,1.71-3.5,2.7-5.52l.658-.325Zm2.046-5.108.095-.875-.094.155L25.378,12l-.054.788Zm-.316.635-1.888,3.8.14-1.045L23.6,15.539Zm-2.076,4.181-.4.811a.343.343,0,0,1-.191-.046c-.091.067-.184.133-.277.2L21.509,19.7Zm4.9,7.8c-.042-.09-.139-.155-.179-.246a3.763,3.763,0,0,0-.321-.777.484.484,0,0,1-.124-.353c.3-.464.661-1.052.868-1.387a.737.737,0,0,1,.075-.073,2.315,2.315,0,0,1,.413-.3h0l.2-.067c.091-.023.186-.04.281-.061l-1.208,3.3A.173.173,0,0,0,26.231,28.625Zm3.488-7.56,1.74-1.466c.512-.2,1.033-.37,1.557-.537.245-.079.5-.134.785-.2-.249.246-1.18,1.159-2.219,2.088Zm3.115-2.74-.005-.011-.042.019L34.144,16.5l4.669-.958Zm3.74-5.38.4-.678.325-.244.008-.007a6.492,6.492,0,0,1,2.027-1.163ZM23.459,21.1l-.031.01.051-.054Zm-.894.293a.8.8,0,0,1-.572.018.307.307,0,0,0-.038-.022c.777-1.4,1.828-3.3,2.9-5.242l-.664,3.209Zm2.324-4.672,3.757-2.933c-.837,1.045-2.515,3.144-4.163,5.2Zm1.576-4.28-.015-1.383c.485-.992.864-1.765,1.057-2.162a6.736,6.736,0,0,1,1.444-.959Zm-.979.015.053-.783.183-.363,0-.01a6.5,6.5,0,0,1,1.3-1.941Zm3.605,18.612.18-.016-.166.034Zm2.324-1.4q1.213-.647,2.432-1.285c.648-.339,1.3-.668,1.947-1.008a.534.534,0,0,1,.751.14c.055.06.127.156.187.152.366-.021.449.263.55.506.168.4.308.815.47,1.252l-1.062.193c-.316.058-.632.12-.949.172-.965.157-1.93.309-2.9.464-.072.011-.143.034-.216.048q-1.617.3-3.237.6c-.022,0-.047-.011-.1-.073l.326-.174-.024-.02c.192-.1.383-.193.573-.294C30.587,30.124,31,29.891,31.415,29.67Zm2.515-10.9h-.037l-.006.006a1.44,1.44,0,0,0-.3.018l3.459-1.267A6.082,6.082,0,0,1,33.93,18.769Zm3.861-1.892c-.139.14-.28.268-.421.388l-4.836,1.642.1-.084-1.7.628-.025.009,8.019-3.734C38.628,16.031,38.256,16.41,37.791,16.877Zm2.247-2.327-.013.008-.01.012s-.135.16-.6.644l-1.386.293,1.659-2.377,3.8-1.527A12.61,12.61,0,0,1,40.038,14.55Zm3.593-3.505a.546.546,0,0,1,0,.181L39.9,12.83l.937-1.342,1.473-1.022c.132.013.266.029.4.05C43.268,10.6,43.576,10.779,43.631,11.045Zm-17.925,7.8-.034.018-.012.035c-.006.02-.24.71-.583,1.632-.032.014-.063.027-.1.038-.42.148-.84.3-1.261.44l.161-.369h-.011l4.071-4.291A6.069,6.069,0,0,1,25.706,18.849Zm2.617-3.41c-.062.187-.131.364-.2.534L23.413,20.7l.012-.024L23.4,20.7,28.828,13.9C28.7,14.309,28.532,14.813,28.323,15.439Zm.979-3.084-.008.014,0,.014s-.05.2-.248.842l-1.111.879.43-2.867,2.726-3.056A12.6,12.6,0,0,1,29.3,12.355Zm.6-4.8c.534-.17.89-.148,1.057.066a.545.545,0,0,1,.083.161l-2.631,3.1.243-1.617.865-1.57C29.647,7.641,29.774,7.6,29.906,7.553ZM15.54,31.761c.006-.711.037-1.421.033-2.132,0-.61-.035-1.22-.046-1.831l.005-.011.118-.948a.941.941,0,0,1,.441.178,2.669,2.669,0,0,1,.28.245c.417.326.843.641,1.249.98a1.329,1.329,0,0,0-.834.406,1.423,1.423,0,0,0-.356.72.22.22,0,0,0-.006.037c-.008.052-.014.1-.017.157a3.245,3.245,0,0,0-.168.639,1.248,1.248,0,0,0-.109.343,1.3,1.3,0,0,0,.638,1.3,1.072,1.072,0,0,0,.133.062.263.263,0,0,1,0,.277l-1.284,1.188-.073.048C15.542,32.869,15.535,32.315,15.54,31.761Zm-.01,2.45q.009-.3.01-.6l.953-.631c.217-.121,1.091-.811,1.308-.933.025.017-.609.6-.584.619L15.5,34.888C15.511,34.662,15.524,34.437,15.53,34.211Zm10.321-3.6.732.614v.007l-.244.128a.248.248,0,0,1-.067-.012A.622.622,0,0,1,25.851,30.613Z"/></svg>