<svg id="Camada_1" data-name="Camada 1" xmlns="http://www.w3.org/2000/svg" viewBox="0 0 170.92 170.864"><path d="M169.859,101.556a2.661,2.661,0,0,0-.774-.419,17.7,17.7,0,0,1-2.04-.865q-5.13-2.362-10.4-4.4c-1.174-.452-2.355-.878-3.53-1.323-.412-.162-.452-.22-.426-.652.033-.407.1-.807.13-1.213a30.05,30.05,0,0,0,.251-4.085c-.058-.885-.1-1.769-.129-2.653-.019-.445-.058-.884-.083-1.323.044-1.613-.155-3.214-.265-4.821-.071-1.1-.335-2.173-.31-3.275.212-.064.426-.12.635-.191,5.6-1.922,10.963-4.414,16.39-6.75a2.381,2.381,0,0,0,1.454-3.069c-.263-1.077-.514-2.157-.791-3.231-.341-1.324-.723-2.637-1.051-3.964a2.764,2.764,0,0,0-3.295-2.058c-1.566.257-3.156.357-4.736.529-1.542.167-3.089.311-4.627.517q-2.8.374-5.586.84a18.973,18.973,0,0,0-3.14.617l0,0a2.4,2.4,0,0,1-.439-.756c-.355-.774-.7-1.548-1.084-2.3A67.356,67.356,0,0,0,139.16,45.74a3.1,3.1,0,0,1-.664-1.013,17.065,17.065,0,0,0,1.93-2.2,7.412,7.412,0,0,0,1.192-1.538h0c.152-.159.317-.308.454-.479,2.1-2.622,4.163-5.278,6.075-8.045.587-.849,1.167-1.7,1.831-2.5a2.476,2.476,0,0,0-.062-3.509l-2.023-2.2c-1.124-1.228-2.417-2.278-3.628-3.415a2.163,2.163,0,0,0-1.615-.593,2.635,2.635,0,0,0-2.174,1.115.827.827,0,0,0-.453.3.448.448,0,0,0-.191.159,4.042,4.042,0,0,0-.482.259q-2.739,1.977-5.469,3.966a5.6,5.6,0,0,0-.482.444l-.021.014a.311.311,0,0,0-.259.191h0a.828.828,0,0,0-.431.313.242.242,0,0,0-.164.149l-.033.023a1.182,1.182,0,0,0-.228.189,1.69,1.69,0,0,0-.685.512.34.34,0,0,0-.172.158A17.025,17.025,0,0,0,129.3,29.66c-1.11.917-2.263,1.786-3.282,2.809l0,0h0c-.42.155-.7-.1-1.007-.316-1.329-.943-2.672-1.865-4.078-2.679-2.82-1.626-5.654-3.226-8.48-4.827a2.17,2.17,0,0,0-.407-.148c-.323-.155-.652-.31-.974-.458l0,0c.118-.729.224-1.46.355-2.186.779-4.325,1.346-8.677,1.778-13.05a22.787,22.787,0,0,1,.39-3.519,2.856,2.856,0,0,0,.038-.882,2.423,2.423,0,0,0-1.554-2.23,7.73,7.73,0,0,0-1.052-.341Q108.4,1.148,105.777.48c-.571-.147-1.138-.322-1.718-.425a2.342,2.342,0,0,0-2.618,1.216,2.468,2.468,0,0,0-.247.5,27.573,27.573,0,0,1-1.405,3.251q-3.068,6.7-5.512,13.659a2.3,2.3,0,0,1-1.064,1.481h0c-1.032-.065-2.065-.123-3.1-.2a58.931,58.931,0,0,0-6.318-.078c-1.917.065-3.827.284-5.744.432h-.007a2.031,2.031,0,0,1-1.365-1.467c-.041-.141-.1-.277-.149-.416-1.078-3.06-2.24-6.087-3.523-9.066a14.624,14.624,0,0,0-1.155-2.5h0a1.725,1.725,0,0,0-.067-.324c-.7-1.667-1.558-3.266-2.183-4.968A2.6,2.6,0,0,0,69.2.915a2.149,2.149,0,0,0-2.028-.9,4.809,4.809,0,0,0-1.8.483h0a5.675,5.675,0,0,0-.655.094q-2.309.593-4.613,1.2a10.71,10.71,0,0,0-1.064.307,2.613,2.613,0,0,0-1.764,3.07c.049.291.125.579.156.872.2,1.985.377,3.974.608,5.955.236,2.018.5,4.035.8,6.043.331,2.154.726,4.3,1.108,6.445a.446.446,0,0,1-.251.535,7.131,7.131,0,0,0-1.421.791.415.415,0,0,0-.452.22.528.528,0,0,0-.5.24,17.423,17.423,0,0,0-2.4,1.136,44.249,44.249,0,0,0-7.538,4.64,4.9,4.9,0,0,1-.632.452,1.591,1.591,0,0,1-1.865-.065c-.206-.148-.4-.323-.6-.49q-5.218-4.482-10.816-8.48a2.745,2.745,0,0,0-.93-.568h0v0h0a.269.269,0,0,0-.252-.2h0c-.812-.634-1.6-1.3-2.44-1.9a2.6,2.6,0,0,0-3.35.175,70.917,70.917,0,0,0-5.546,5.57,2.437,2.437,0,0,0-.685,1.585,2.673,2.673,0,0,0,.689,1.935,22.983,22.983,0,0,1,1.653,2.22,154.1,154.1,0,0,0,10.105,12.9v0a.215.215,0,0,0,.065.2v0a.459.459,0,0,0,.133.431v0a.251.251,0,0,0,0,.194,7.654,7.654,0,0,1-.987,1.839,72.045,72.045,0,0,0-6.518,11.3,2.051,2.051,0,0,1-2.014.58c-3-.591-6.019-1.026-9.046-1.425a18.106,18.106,0,0,0-3.4-.314.083.083,0,0,0-.137,0,1.9,1.9,0,0,0-1.183-.167h0c-1.526-.31-3.1-.216-4.623-.549a2.22,2.22,0,0,0-.553-.007A2.392,2.392,0,0,0,2.155,58.9,13.889,13.889,0,0,0,1.7,60.386Q.929,63.337.182,66.294a6.2,6.2,0,0,0-.161.758A2.253,2.253,0,0,0,.912,69.2a3.375,3.375,0,0,0,1.062.584,9.84,9.84,0,0,1,.934.344c1.146.516,2.278,1.067,3.432,1.566,1.457.63,2.884,1.336,4.4,1.832h0c.162.085.318.182.486.255A33.837,33.837,0,0,0,15.08,75.1a18.856,18.856,0,0,1,2.9,1.055,4.876,4.876,0,0,1,2.143,1.833V78c-.038.619-.058,1.251-.122,1.871-.2,1.943-.3,3.892-.31,5.84-.006,1.291.058,2.582.123,3.866.064,1.323.161,2.646.251,3.969h0v0a4.564,4.564,0,0,1-1.351.721c-1.6.565-3.189,1.146-4.763,1.769a21.485,21.485,0,0,0-3.041,1.286,4.657,4.657,0,0,0-.525.154Q7.536,98.695,4.7,99.928c-.981.423-1.931.908-2.941,1.276A2.46,2.46,0,0,0,.1,104.288c.023.108.061.212.089.32.327,1.285.648,2.573.984,3.857.289,1.1.546,2.222.9,3.3a2.524,2.524,0,0,0,3,1.824c1.642-.254,3.3-.313,4.947-.531.848-.112,1.713-.109,2.551-.306a.57.57,0,0,0,.392-.1c.439-.024.881-.025,1.316-.078q1.368-.165,2.73-.378c2.286-.356,4.58-.668,6.839-1.182a.5.5,0,0,0,.464-.126h0l.074.033.081,0c.1.2.193.393.277.6q1.239,2.961,2.749,5.8a63.879,63.879,0,0,0,4.092,6.57c.374.58.748,1.168,1.123,1.748v0c-1.182,1.418-2.38,2.824-3.543,4.257q-3.7,4.565-7.057,9.4c-.4.576-.852,1.115-1.284,1.667A2.583,2.583,0,0,0,21,144.4c.341.338.675.685.985,1.051a51.115,51.115,0,0,0,4.507,4.422,2.508,2.508,0,0,0,1.794.744,2.593,2.593,0,0,0,1.718-.68,17.941,17.941,0,0,1,1.864-1.391q3.465-2.4,6.785-5c2.18-1.711,4.342-3.444,6.394-5.309.328.238.663.47.985.715a66.392,66.392,0,0,0,13.236,7.783,5.086,5.086,0,0,1,.567.328c-.075.36-.164.718-.222,1.08q-.495,3.054-.978,6.109c-.451,2.876-.755,5.77-1.022,8.667-.084.918-.164,1.833-.324,2.742a2.593,2.593,0,0,0,1.734,3.071,12.469,12.469,0,0,0,1.484.43,32.129,32.129,0,0,0,3.543.846,18.577,18.577,0,0,0,2.854.784,1.981,1.981,0,0,0,2.211-.852,2.215,2.215,0,0,0,.646-1.015c.245-.577.452-1.17.715-1.738,1.51-3.253,2.934-6.542,4.231-9.884.626-1.614,1.294-3.214,1.768-4.883l0-.006a.165.165,0,0,0,.04-.168l0-.007a.242.242,0,0,0,.126-.255l-.055.109c.018-.036.035-.073.054-.111.207-.226.458-.181.717-.136a39.484,39.484,0,0,0,5.156.51,64.338,64.338,0,0,0,11.248-.329c.381-.052.523.168.711.387h0a5.93,5.93,0,0,0,.161.64q.919,2.495,1.853,4.986c1.429,3.806,3.235,7.452,4.793,11.2a2.392,2.392,0,0,0,3.076,1.448q3.276-.822,6.546-1.662a9.847,9.847,0,0,0,1.155-.387,2.338,2.338,0,0,0,1.561-2.1,3.526,3.526,0,0,0-.049-1.1,12.731,12.731,0,0,1-.207-1.758c-.089-1.03-.162-2.062-.285-3.088-.257-2.163-.51-4.327-.825-6.482-.319-2.19-.71-4.37-1.07-6.555h0c1.465-.691,2.95-1.33,4.382-2.072a71.97,71.97,0,0,0,10.725-6.756h0c.294.222.6.431.882.667,3.349,2.8,6.774,5.512,10.336,8.042.692.491,1.413.939,2.121,1.406a.235.235,0,0,0,.167.144l.194.1a11.535,11.535,0,0,0,1.171,1,2.414,2.414,0,0,0,3.157-.178,61.2,61.2,0,0,0,5.724-5.709,2.326,2.326,0,0,0,.452-2.48,3.853,3.853,0,0,0-.683-1.13c-.28-.342-.569-.68-.819-1.043-1.72-2.5-3.5-4.948-5.382-7.326a17.22,17.22,0,0,0-2.479-2.669,2.518,2.518,0,0,0-.605-.752,12.361,12.361,0,0,1-1.7-2.361c.213-.3.419-.613.645-.9a68.733,68.733,0,0,0,7.834-12.971c.129-.265.239-.542.368-.807.245-.5.265-.51.859-.458a1.79,1.79,0,0,1,.329.032q2.941.561,5.9.936c2.123.264,4.246.548,6.376.787,1.5.174,3.02.213,4.51.471a3.934,3.934,0,0,0,.994.013,2.264,2.264,0,0,0,2.079-1.568c.271-.768.47-1.562.677-2.343.478-1.82.929-3.652,1.42-5.466A2.3,2.3,0,0,0,169.859,101.556ZM91.366,26.309a65.336,65.336,0,0,1,17.2,3.627,3.246,3.246,0,0,0,1.059.316.024.024,0,0,0,.006.019c.006,0,.006-.006.006-.013,1.659.955,3.311,1.936,4.995,2.84a60.8,60.8,0,0,1,15.631,11.913c.148.155.348.284.387.548a3.235,3.235,0,0,1-.691.833c-4.336,4.8-8.628,9.648-12.791,14.6a45.119,45.119,0,0,0-5.24,7.409,2.815,2.815,0,0,1-.264.355h-.11a9.693,9.693,0,0,0-3.162.438c-1,.317-.9.194-1.562-.361-1.1-.923-2.181-1.871-3.266-2.807.014-.3.033-.594.033-.891a1.556,1.556,0,0,0-.949-1.5c-.264-.13-.536-.246-.8-.381-.658-.336-.729-.471-.632-1.233a7.744,7.744,0,0,0,.116-1.1,1.8,1.8,0,0,0-1.168-1.839,6.47,6.47,0,0,1-.607-.265,1.163,1.163,0,0,1-.742-1.439c.058-.4.148-.8.187-1.2a1.439,1.439,0,0,0-.71-1.414c-.277-.174-.58-.322-.877-.471-.233-.116-.478-.206-.7-.329a.746.746,0,0,1-.419-.826c.019-.109.038-.219.058-.329a2.188,2.188,0,0,0-1.626-2.639,3.511,3.511,0,0,0-2.5.122c-.916.388-1.826.807-2.743,1.2a1.39,1.39,0,0,1-.864.238,1.736,1.736,0,0,0-1.543-1.5,3.826,3.826,0,0,0-.548-.019,36.954,36.954,0,0,1-5.5-7.622c-2.769-4.769-5.311-9.654-7.834-14.546a2.715,2.715,0,0,1-.116-.31c.077-.271.316-.284.522-.329a66.456,66.456,0,0,1,8.893-1.194A61.69,61.69,0,0,1,91.366,26.309ZM90.049,73.438c.678-.284,1.355-.593,2.033-.884a1.655,1.655,0,0,1,.839-.245,1.478,1.478,0,0,1,.116.11c.884.8,1.769,1.607,2.665,2.407.962.852,1.924,1.71,2.918,2.536a.906.906,0,0,1,.329,1.207,7.686,7.686,0,0,0-.259,4.666,7.11,7.11,0,0,0,1.982,3.51c.47.452.936.923,1.4,1.381l-.006.007c.006,0,.012.006.019.006q-1.684,3.534-3.363,7.08c-.032.071-.058.142-.09.206a4.156,4.156,0,0,1-.723,1.343c-.38.322-.993.064-1.51.1a7.674,7.674,0,0,0-6.653,4.06c-.29.516-.561,1.039-.839,1.555l-.29-.039c-1.588-.2-3.175-.393-4.77-.593-.839-.1-1.684-.2-2.529-.3a.407.407,0,0,1-.394-.323c-.065-.252-.123-.5-.213-.749a7.789,7.789,0,0,0-6.763-5.588,7.871,7.871,0,0,1-2.084-.388.1.1,0,0,0,.025-.032.451.451,0,0,0-.09,0h-.007c-.1-1.291-.187-2.575-.3-3.859-.175-2.02-.349-4.04-.549-6.053a.955.955,0,0,1,.613-1.117,7.836,7.836,0,0,0,3.885-4.214,6.844,6.844,0,0,0,.49-3.356c-.077-.677-.064-1.381-.09-2.065,0,.007.007.007.013.007s-.006-.026-.013-.039l4.221-1.955c.271-.123.542-.246.807-.368a.371.371,0,0,1,.412.071c.194.167.375.355.568.522a8.114,8.114,0,0,0,5.505,1.988A7.236,7.236,0,0,0,90.049,73.438ZM57.831,26.04h0Zm.447-.221,0,0,0,0ZM27.238,73.955a59.925,59.925,0,0,1,10.5-23.394,3.42,3.42,0,0,0,.594-.884.021.021,0,0,0,.019-.007c0-.013-.006-.019-.006-.032a20.519,20.519,0,0,0,2-2.646,20.6,20.6,0,0,1,3.576-3.917,80.293,80.293,0,0,1,11.474-8.512c1.11-.658,2.259-1.259,3.394-1.872.343-.187.414-.155.627.174.438.685.865,1.375,1.3,2.066,2.956,4.775,5.976,9.512,9.112,14.171.826,1.227,1.678,2.44,2.556,3.627a33.868,33.868,0,0,0,4.7,5.105c.007.006.019,0,.026,0s-.007.013-.007.019a10.484,10.484,0,0,0-.387,2.033.675.675,0,0,1-.445.665c-.665.3-1.31.626-1.968.942a8.7,8.7,0,0,0-1.536-.865,1.627,1.627,0,0,0-1.659.316c-.277.239-.542.5-.793.768a.828.828,0,0,1-1.1.155,10.371,10.371,0,0,0-1.414-.626,1.634,1.634,0,0,0-1.826.439,8.05,8.05,0,0,1-.8.768.95.95,0,0,1-1.142.1c-.226-.129-.439-.271-.658-.407a1.808,1.808,0,0,0-2.672.271c-.213.207-.413.433-.626.633-.491.452-.671.477-1.285.187-.1-.052-.193-.116-.289-.161a2.321,2.321,0,0,0-3.021.852,3.518,3.518,0,0,0-.6,2.207c.058,1.032.1,2.065.155,3.1.006.226-.1.355-.323.342a1.8,1.8,0,0,0-1.878,1.265,2.309,2.309,0,0,1-.123.225.392.392,0,0,0-.044.065c-.7.252-1.394.484-2.085.755a34.014,34.014,0,0,1-8.19,1.9c-3.672.452-7.357.749-11.041,1.059-1.143.1-2.285.168-3.434.239a1.331,1.331,0,0,1-.819-.084C27.141,74.658,27.16,74.3,27.238,73.955ZM58.156,127.46c-.806,3-1.7,5.97-2.549,8.958-.1.348-.226.69-.335,1.006-.349.084-.53-.135-.743-.264a60.1,60.1,0,0,1-17.133-15.9c-.194-.259-.4-.51-.607-.762l-.084-.1c-.562-.91-1.116-1.827-1.7-2.73a56.009,56.009,0,0,1-6.473-14.3,56.806,56.806,0,0,1-2.3-12.068c-.039-.477-.1-.955-.129-1.433-.019-.361.065-.458.426-.509.878-.142,1.755-.284,2.633-.407q6.371-.91,12.7-2.059c1.671-.309,3.336-.645,5-.993a47.335,47.335,0,0,0,8.79-3.053,1.251,1.251,0,0,0,.258-.2c.006.006.019.006.025.013a22.584,22.584,0,0,0,2.337,1.162,1.028,1.028,0,0,1,.806,1.032c.007.11.026.22.039.329q.367,4.182.742,8.357a4.139,4.139,0,0,0-1.277,1.356,1.562,1.562,0,0,0,.019,1.678c.174.284.368.555.536.839.323.535.309.677-.085,1.193-.116.149-.245.278-.361.42a3.882,3.882,0,0,0-.645,1.026,1.536,1.536,0,0,0,.09,1.484c.181.284.381.549.542.839a1.04,1.04,0,0,1-.135,1.5c-.271.3-.581.575-.826.9a1.5,1.5,0,0,0-.123,1.761c.142.258.3.51.465.755a2.007,2.007,0,0,1,.516,1.078c0,.407-.381.613-.593.91a2.232,2.232,0,0,0,.128,2.943,3.591,3.591,0,0,0,1.756,1.11c.213.058.432.084.645.142.246.071.394.206.278.49a1.7,1.7,0,0,0,.012,1.33c.007.019.02.045.026.064A84.374,84.374,0,0,1,58.156,127.46Zm52.37,13.378a64.876,64.876,0,0,1-7.2,2.879c-.278.09-.555.193-.832.3a.092.092,0,0,0-.046-.025l-.039.038v.007c-1.019.226-2.032.426-3.046.677a51.711,51.711,0,0,1-6.208,1.078,58.75,58.75,0,0,1-16.669-.406,61.277,61.277,0,0,1-7.118-1.62c-.788-.226-.794-.239-.626-1.071q.8-3.96,1.62-7.919,1.276-6.175,2.284-12.41a26.908,26.908,0,0,0,.459-5.285.457.457,0,0,1,.064-.058,2.494,2.494,0,0,1,.845-.317,9.279,9.279,0,0,0,4.427-3.02c.072-.09.142-.174.207-.264a.565.565,0,0,1,.58-.233l4.512.562a3.56,3.56,0,0,0,.955,2.3,1.594,1.594,0,0,0,1.7.5c.354-.1.709-.206,1.065-.3a.709.709,0,0,1,.78.29c.155.207.271.439.42.646a6.432,6.432,0,0,0,.7.858,1.571,1.571,0,0,0,1.716.438,6.127,6.127,0,0,1,.743-.219,1.141,1.141,0,0,1,1.478.639c.193.316.335.665.548.962a1.619,1.619,0,0,0,1.833.7c.393-.1.774-.245,1.168-.329.677-.155.909-.084,1.258.561a2.38,2.38,0,0,0,3.433.826,3.7,3.7,0,0,0,1.433-1.51c.387-.794.781-1.587,1.188-2.375.135-.245.18-.561.5-.716a2.007,2.007,0,0,0,2.265.291,1.42,1.42,0,0,1,.174-.059c.013-.006.026-.006.039-.013a36.232,36.232,0,0,1,8.835,3.195c4.375,2.078,8.654,4.343,12.919,6.641a.522.522,0,0,1,.317.322,2.135,2.135,0,0,1-.626.717A65.159,65.159,0,0,1,110.526,140.838Zm36-53.17a49.331,49.331,0,0,1-1.742,12.578,60.033,60.033,0,0,1-5.744,14.127c-.213.387-.452.761-.678,1.142a.385.385,0,0,1-.561.161c-1.588-.7-3.175-1.4-4.769-2.084-4.808-2.085-9.635-4.118-14.546-5.963a44.279,44.279,0,0,0-8.144-2.065,3.191,3.191,0,0,0-.44-.026c-.006-.026-.019-.058-.026-.084a7.069,7.069,0,0,0-1.07-2.323,1.192,1.192,0,0,1-.065-1.407c.878-1.833,1.717-3.672,2.569-5.511a10.593,10.593,0,0,0,1.109.038,4.152,4.152,0,0,0,.981-.135,1.787,1.787,0,0,0,1.485-1.936c0-.22,0-.445.012-.665.039-.626.11-.716.749-.929.207-.065.432-.1.639-.174a7.738,7.738,0,0,0,.91-.407,1.559,1.559,0,0,0,.858-1.452c-.006-.258-.006-.516.007-.774a1.16,1.16,0,0,1,1.013-1.259c.284-.084.581-.11.865-.187a1.66,1.66,0,0,0,1.419-1.736c.026-.368.013-.736.033-1.11.032-.684.154-.839.787-1.02.142-.038.3-.051.432-.1a2.107,2.107,0,0,0,1.51-1.988,3.308,3.308,0,0,0-1.006-2.614c-.523-.523-1.078-1.013-1.62-1.516a1.241,1.241,0,0,1-.477-.626,1.109,1.109,0,0,0,.625-1.175c-.013-.187-.013-.374-.013-.555-.012-.019-.019-.045-.032-.064a.208.208,0,0,0,.045.032.048.048,0,0,0,.033-.007.491.491,0,0,0,.116-.116,37.556,37.556,0,0,1,5.053-6.156c3.827-4.014,7.835-7.841,11.874-11.642.155-.155.3-.342.542-.355a1.678,1.678,0,0,1,.484.729,59.8,59.8,0,0,1,5.88,17.114,54.25,54.25,0,0,1,.91,8.467c.006.213.025.426.044.639.007.046.007.091.014.136C146.575,85.674,146.523,86.668,146.53,87.668Z"/><path d="M132.263,27.372l.228-.189A.235.235,0,0,0,132.263,27.372Z"/><path d="M139.832,21.824l.191-.159A.2.2,0,0,0,139.832,21.824Z"/><path d="M131.406,28.042l.172-.158A.171.171,0,0,0,131.406,28.042Z"/></svg>